<svg xmlns="http://www.w3.org/2000/svg" width="1200" height="630" viewBox="0 0 1200 630"><rect width="1200" height="630" fill="#F8FAFC"/><circle cx="1050" cy="80" r="260" fill="#EAF3FF"/><circle cx="120" cy="570" r="220" fill="#E8FFF5"/><rect x="72" y="70" width="1056" height="490" rx="42" fill="#fff" stroke="#D9E4F2"/><rect x="112" y="112" width="86" height="86" rx="24" fill="#1D72F3"/><path d="M155 130l24 10v18c0 23-13 36-24 42-11-6-24-19-24-42v-18l24-10z" fill="#fff"/><path d="M144 158l9 9 18-24" stroke="#0F7A5F" stroke-width="7" fill="none" stroke-linecap="round" stroke-linejoin="round"/><text x="226" y="166" font-family="Arial, sans-serif" font-size="54" font-weight="800" fill="#102033">LegalClean</text><text x="112" y="286" font-family="Arial, sans-serif" font-size="64" font-weight="900" fill="#102033">Снос сайта из выдачи</text><text x="112" y="360" font-family="Arial, sans-serif" font-size="42" font-weight="700" fill="#1D72F3">Яндекс · Google · РКН · SERM</text><text x="112" y="438" font-family="Arial, sans-serif" font-size="30" fill="#607089">скам-сайты, фишинг, зеркала, сайты конкурентов</text><rect x="112" y="475" width="222" height="54" rx="27" fill="#0F7A5F"/><text x="223" y="511" font-family="Arial, sans-serif" font-size="26" font-weight="700" text-anchor="middle" fill="#fff">от $200</text></svg>